<svg width="138" height="37" viewBox="0 0 138 37" fill="none" xmlns="http://www.w3.org/2000/svg">
<path d="M32.04 28V8.89H34.666L37.266 18.848L37.5 19.732H37.656V8.89H40.23V28H37.864L35.004 18.042L34.77 17.158H34.614V28H32.04ZM46.1578 28.208C45.1091 28.208 44.2815 27.8483 43.6748 27.129C43.0768 26.401 42.7778 25.5127 42.7778 24.464V17.314C42.7778 16.2047 43.0768 15.3033 43.6748 14.61C44.2728 13.9167 45.1091 13.57 46.1838 13.57C46.8858 13.57 47.4881 13.7303 47.9908 14.051C48.5021 14.3717 48.8921 14.8093 49.1608 15.364C49.4295 15.91 49.5638 16.534 49.5638 17.236V21.37H45.2218V24.464C45.2218 24.8193 45.2998 25.1487 45.4558 25.452C45.6205 25.7467 45.8631 25.894 46.1838 25.894C46.5218 25.894 46.7601 25.7553 46.8988 25.478C47.0461 25.2007 47.1198 24.8627 47.1198 24.464V22.904H49.5638V24.542C49.5638 25.6427 49.2648 26.531 48.6668 27.207C48.0775 27.8743 47.2411 28.208 46.1578 28.208ZM45.2218 19.316H47.1198V17.314C47.1198 16.924 47.0505 16.586 46.9118 16.3C46.7818 16.0053 46.5391 15.858 46.1838 15.858C45.8545 15.858 45.6118 16.0097 45.4558 16.313C45.2998 16.6077 45.2218 16.9413 45.2218 17.314V19.316ZM53.2522 28L51.1462 13.778H53.6682L54.3702 21.214L54.4742 22.67H54.6302L54.7602 21.214L55.8522 13.778H57.4122L58.5042 21.214L58.6342 22.67H58.7902L58.8942 21.214L59.5962 13.778H62.1182L60.0122 28H57.8282L56.8142 21.214L56.6842 19.888H56.5802L56.4502 21.214L55.4362 28H53.2522ZM72.9665 28.208C72.1692 28.208 71.4888 28.0303 70.9255 27.675C70.3708 27.311 69.9462 26.817 69.6515 26.193C69.3655 25.569 69.2225 24.8627 69.2225 24.074V12.816C69.2225 12.036 69.3698 11.334 69.6645 10.71C69.9678 10.086 70.4012 9.592 70.9645 9.228C71.5278 8.864 72.1952 8.682 72.9665 8.682C73.5472 8.682 74.0672 8.79033 74.5265 9.007C74.9858 9.22367 75.3758 9.52267 75.6965 9.904C76.0258 10.2767 76.2772 10.7143 76.4505 11.217C76.6238 11.711 76.7105 12.244 76.7105 12.816V15.442H74.0845V12.816C74.0845 12.4173 74.0022 12.0837 73.8375 11.815C73.6728 11.5463 73.3998 11.412 73.0185 11.412C72.6718 11.412 72.4205 11.5507 72.2645 11.828C72.1085 12.1053 72.0305 12.4347 72.0305 12.816V24.074C72.0305 24.4553 72.1128 24.7847 72.2775 25.062C72.4508 25.3393 72.6978 25.478 73.0185 25.478C73.4085 25.478 73.6815 25.3437 73.8375 25.075C74.0022 24.8063 74.0845 24.4727 74.0845 24.074V21.448H76.7105V24.074C76.7105 24.854 76.5588 25.556 76.2555 26.18C75.9522 26.804 75.5188 27.298 74.9555 27.662C74.4008 28.026 73.7378 28.208 72.9665 28.208ZM82.5179 28.182C81.4692 28.182 80.6459 27.831 80.0479 27.129C79.4499 26.4183 79.1509 25.5213 79.1509 24.438V17.314C79.1509 16.2307 79.4499 15.338 80.0479 14.636C80.6459 13.9253 81.4692 13.57 82.5179 13.57C83.5579 13.57 84.3769 13.9253 84.9749 14.636C85.5815 15.338 85.8849 16.2307 85.8849 17.314V24.438C85.8849 25.5213 85.5815 26.4183 84.9749 27.129C84.3769 27.831 83.5579 28.182 82.5179 28.182ZM82.5179 25.894C82.8559 25.894 83.0899 25.7597 83.2199 25.491C83.3499 25.2137 83.4149 24.8627 83.4149 24.438V17.314C83.4149 16.8807 83.3499 16.5297 83.2199 16.261C83.0899 15.9923 82.8559 15.858 82.5179 15.858C82.1799 15.858 81.9459 15.9923 81.8159 16.261C81.6859 16.5297 81.6209 16.8807 81.6209 17.314V24.438C81.6209 24.8713 81.6859 25.2223 81.8159 25.491C81.9459 25.7597 82.1799 25.894 82.5179 25.894ZM88.0504 28V13.778H90.6764V14.974C91.1011 14.584 91.4867 14.2547 91.8334 13.986C92.1887 13.7087 92.5311 13.57 92.8604 13.57C93.3284 13.57 93.7054 13.7303 93.9914 14.051C94.2774 14.3717 94.4897 14.74 94.6284 15.156C95.0011 14.7747 95.3867 14.415 95.7854 14.077C96.1927 13.739 96.6044 13.57 97.0204 13.57C97.4537 13.57 97.8177 13.7087 98.1124 13.986C98.4071 14.2633 98.6281 14.6143 98.7754 15.039C98.9227 15.4637 98.9964 15.9013 98.9964 16.352V28H96.5264V16.872C96.5264 16.5947 96.4571 16.3997 96.3184 16.287C96.1884 16.1743 96.0237 16.118 95.8244 16.118C95.6251 16.118 95.4344 16.196 95.2524 16.352C95.0704 16.4993 94.9317 16.6467 94.8364 16.794V28H92.3664V16.872C92.3664 16.5947 92.2971 16.3997 92.1584 16.287C92.0284 16.1743 91.8637 16.118 91.6644 16.118C91.4651 16.118 91.2744 16.196 91.0924 16.352C90.9104 16.4993 90.7717 16.6467 90.6764 16.794V28H88.0504ZM101.289 32.888V13.778H103.915V14.714C104.244 14.402 104.591 14.1333 104.955 13.908C105.319 13.6827 105.665 13.57 105.995 13.57C106.445 13.57 106.818 13.7087 107.113 13.986C107.416 14.2547 107.641 14.6013 107.789 15.026C107.945 15.4507 108.023 15.8927 108.023 16.352V25.426C108.023 25.8853 107.945 26.3317 107.789 26.765C107.633 27.1897 107.403 27.5363 107.1 27.805C106.796 28.0737 106.428 28.208 105.995 28.208C105.631 28.208 105.275 28.0953 104.929 27.87C104.582 27.636 104.244 27.3673 103.915 27.064V32.888H101.289ZM104.825 25.738C105.024 25.738 105.167 25.6773 105.254 25.556C105.349 25.4347 105.397 25.2527 105.397 25.01V17.028C105.397 16.6987 105.349 16.4517 105.254 16.287C105.167 16.1223 105.024 16.04 104.825 16.04C104.634 16.04 104.435 16.1223 104.227 16.287C104.019 16.443 103.915 16.6467 103.915 16.898V24.88C103.915 25.088 104.019 25.283 104.227 25.465C104.435 25.647 104.634 25.738 104.825 25.738ZM112.226 28.208C111.619 28.208 111.095 27.9003 110.653 27.285C110.211 26.6697 109.99 25.7293 109.99 24.464C109.99 23.242 110.25 22.2583 110.77 21.513C111.299 20.7677 112.087 20.122 113.136 19.576C113.465 19.4027 113.743 19.2467 113.968 19.108C114.193 18.9693 114.332 18.8393 114.384 18.718V17.158C114.384 16.8027 114.341 16.4993 114.254 16.248C114.176 15.988 113.977 15.858 113.656 15.858C113.361 15.858 113.162 15.9967 113.058 16.274C112.954 16.5427 112.902 16.8807 112.902 17.288V17.964H110.276V17.366C110.276 16.586 110.428 15.9143 110.731 15.351C111.043 14.779 111.463 14.3413 111.992 14.038C112.529 13.726 113.136 13.57 113.812 13.57C114.462 13.57 115.025 13.7217 115.502 14.025C115.979 14.3197 116.347 14.7313 116.607 15.26C116.876 15.78 117.01 16.378 117.01 17.054V25.53C117.01 26.1627 117.027 26.6567 117.062 27.012C117.097 27.3587 117.14 27.688 117.192 28H114.618C114.505 27.8613 114.436 27.6577 114.41 27.389C114.393 27.1203 114.384 26.9427 114.384 26.856H114.202C113.985 27.2547 113.708 27.5797 113.37 27.831C113.041 28.0823 112.659 28.208 112.226 28.208ZM113.292 25.634C113.595 25.634 113.851 25.53 114.059 25.322C114.276 25.114 114.384 24.8887 114.384 24.646V21.266C113.751 21.5347 113.288 21.942 112.993 22.488C112.707 23.0253 112.564 23.632 112.564 24.308C112.564 24.6027 112.62 24.8973 112.733 25.192C112.846 25.4867 113.032 25.634 113.292 25.634ZM119.488 28V13.778H122.114V14.974C122.426 14.6707 122.777 14.363 123.167 14.051C123.557 13.7303 123.917 13.57 124.246 13.57C124.679 13.57 125.043 13.7087 125.338 13.986C125.633 14.2633 125.854 14.6143 126.001 15.039C126.148 15.4637 126.222 15.9013 126.222 16.352V28H123.596V16.872C123.596 16.5947 123.548 16.3997 123.453 16.287C123.358 16.1743 123.197 16.118 122.972 16.118C122.781 16.118 122.617 16.1873 122.478 16.326C122.348 16.456 122.227 16.612 122.114 16.794V28H119.488ZM129.018 33.096C128.906 33.096 128.771 33.0917 128.615 33.083C128.459 33.0743 128.308 33.057 128.16 33.031V30.704C128.186 30.7127 128.256 30.7213 128.368 30.73C128.481 30.7473 128.555 30.756 128.589 30.756C129.075 30.756 129.465 30.626 129.759 30.366C130.063 30.106 130.275 29.7593 130.396 29.326C130.44 29.196 130.461 29.0443 130.461 28.871C130.47 28.6977 130.474 28.546 130.474 28.416L128.056 13.778H130.63L131.67 22.644L131.722 23.632H131.826L131.878 22.644L132.918 13.778H135.492L132.97 29.066C132.875 29.8287 132.658 30.5133 132.32 31.12C131.991 31.7353 131.549 32.2163 130.994 32.563C130.44 32.9183 129.781 33.096 129.018 33.096Z" fill="#F0DFDF"/>
<path d="M7 16.5L2 19L11.6422 23.8211C11.7734 23.8867 11.839 23.9195 11.9078 23.9324C11.9687 23.9438 12.0313 23.9438 12.0922 23.9324C12.161 23.9195 12.2266 23.8867 12.3578 23.8211L22 19L17 16.5M7 21.5L2 24L11.6422 28.8211C11.7734 28.8867 11.839 28.9195 11.9078 28.9324C11.9687 28.9438 12.0313 28.9438 12.0922 28.9324C12.161 28.9195 12.2266 28.8867 12.3578 28.8211L22 24L17 21.5M2 14L11.6422 9.17889C11.7734 9.1133 11.839 9.0805 11.9078 9.0676C11.9687 9.05616 12.0313 9.05616 12.0922 9.0676C12.161 9.0805 12.2266 9.1133 12.3578 9.17889L22 14L12.3578 18.8211C12.2266 18.8867 12.161 18.9195 12.0922 18.9324C12.0313 18.9438 11.9687 18.9438 11.9078 18.9324C11.839 18.9195 11.7734 18.8867 11.6422 18.8211L2 14Z" stroke="#F0DFDF" stroke-width="2" stroke-linecap="round" stroke-linejoin="round"/>
</svg>
